# AST/ASF file generated using VICON BodyLanguage
# -----------------------------------------------
:version 1.10
:name VICON
:units
  mass 1.0
  length 0.45
  angle deg
:documentation
   .ast/.asf automatically generated from VICON data using
   VICON BodyBuilder and BodyLanguage model FoxedUp or BRILLIANT.MOD
:root
   order TX TY TZ RX RY RZ
   axis XYZ
   position 0 0 0  
   orientation 0 0 0 
:bonedata
  begin
     id 1 
     name lhipjoint
     direction 0.558404 -0.748506 0.357664 
     length 2.4234 
     axis 0 0 0  XYZ
  end
  begin
     id 2 
     name lfemur
     direction 0.34202 -0.939693 0  
     length 7.14567  
     axis 0 0 20  XYZ
    dof rx ry rz
    limits (-160.0 20.0)
           (-70.0 70.0)
           (-60.0 70.0)
  end
  begin
     id 3 
     name ltibia
     direction 0.34202 -0.939693 0   
     length 8.13956   
     axis 0 0 20   XYZ
    dof rx
    limits (-10.0 170.0)
  end
  begin
     id 4 
     name lfoot
     direction 0.0791314 -0.217412 0.972867   
     length 2.00134   
     axis -90 7.62852e-016 20   XYZ
    dof rx rz
    limits (-45.0 90.0)
           (-70.0 20.0)
  end
  begin
     id 5 
     name ltoes
     direction 1.53547e-011 -4.21922e-011 1   
     length 1.00735   
     axis -90 7.62852e-016 20   XYZ
    dof rx
    limits (-90.0 20.0)
  end
  begin
     id 6 
     name rhipjoint
     direction -0.496392 -0.78327 0.374276   
     length 2.31584  
     axis 0 0 0  XYZ 
  end
  begin
     id 7 
     name rfemur
     direction -0.34202 -0.939693 0   
     length 7.47417   
     axis 0 0 -20   XYZ
    dof rx ry rz
    limits (-160.0 20.0)
           (-70.0 70.0)
           (-70.0 60.0)
  end
  begin
     id 8 
     name rtibia
     direction -0.34202 -0.939693 0   
     length 7.69071   
     axis 0 0 -20   XYZ
    dof rx
    limits (-10.0 170.0)
 end
 begin
     id 9 
     name rfoot
     direction -0.103069 -0.28318 0.953512   
     length 2.16135  
     axis -90 -7.62852e-016 -20   XYZ
    dof rx rz
    limits (-45.0 90.0)
           (-20.0 70.0)
  end
  begin
     id 10 
     name rtoes
     direction -1.53581e-011 -4.21904e-011 1   
     length 1.07867   
     axis -90 -7.62852e-016 -20   XYZ
    dof rx
    limits (-90.0 20.0)
  end
  begin
     id 11 
     name lowerback
     direction -0.0258961 0.994776 -0.0987407   
     length 2.19412   
     axis 0 0 0   XYZ
    dof rx ry rz
    limits (-20.0 45.0)
           (-30.0 30.0)
           (-30.0 30.0)
  end
  begin
     id 12 
     name upperback
     direction 0.0402454 0.999185 0.00320666   
     length 2.18445   
     axis 0 0 0   XYZ
    dof rx ry rz
    limits (-20.0 45.0)
           (-30.0 30.0)
           (-30.0 30.0)
  end
  begin
     id 13 
     name thorax
     direction 0.0519376 0.997415 0.0496558   
     length 2.21487   
     axis 0 0 0   XYZ
    dof rx ry rz
    limits (-20.0 45.0)
           (-30.0 30.0)
           (-30.0 30.0)
  end
  begin
     id 14 
     name lowerneck
     direction -0.0921276 0.983211 0.157506   
     length 1.61201   
     axis 0 0 0   XYZ
    dof rx ry rz
    limits (-20.0 45.0)
           (-30.0 30.0)
           (-30.0 30.0)
  end
  begin
     id 15 
     name upperneck
     direction 0.0820814 0.98162 -0.172292   
     length 1.65275   
     axis 0 0 0   XYZ
    dof rx ry rz
    limits (-20.0 45.0)
           (-30.0 30.0)
           (-30.0 30.0)
  end
  begin
     id 16
     name head
     direction 0.0336554 0.996413 -0.0776455  
     length 1.66415  
     axis 0 0 0   XYZ
    dof rx ry rz
    limits (-20.0 45.0)
           (-30.0 30.0)
           (-30.0 30.0)
  end
  begin
     id 17 
     name lclavicle
     direction 0.94696 0.284418 -0.149576  
     length 3.41447  
     axis 0 0 0   XYZ
    dof ry rz
    limits (-20.0 10.0)
           (0.0 20.0)
  end
  begin
     id 18 
     name lhumerus
     direction 1 -0.000130264 -9.81312e-005   
     length 5.19964   
     axis 180 -30 -90   XYZ
    dof rx ry rz
    limits (-60.0 90.0)
           (-90.0 90.0)
           (-90.0 90.0)
  end
  begin
     id 19
     name lradius
     direction 1 -4.48961e-011 1.43854e-026   
     length 3.32189   
     axis 180 -30 -90   XYZ
    dof rx
    limits (-10.0 170.0)
  end
  begin
     id 20
     name lwrist
     direction 1 -4.48958e-011 3.1502e-026   
     length 1.66095   
     axis -1.97692e-014 90 90   XYZ
    dof ry
    limits (-180.0 0.0)
 end
  begin
     id 21 
     name lhand
     direction 1 -4.48927e-011 6.3004e-026   
     length 0.645616   
     axis -4.02019e-014 90 90   XYZ
    dof rx rz
    limits (-90.0 90.0)
           (-45.0 45.0)
  end
  begin
     id 22 
     name lfingers
     direction 1 -4.4904e-011 1.26008e-025   
     length 0.520512   
     axis -8.04039e-014 90 90   XYZ
    dof rx
    limits (0.0 90.0)
  end
  begin
     id 23
     name lthumb
     direction 0.707107 -6.34947e-011 0.707107   
     length 0.747354   
     axis -90 45 2.85299e-015   XYZ
    dof rx rz
    limits (-45.0 45.0)
           (-45.0 45.0)
  end
  begin
     id 24 
     name rclavicle
     direction -0.909391 0.383475 -0.161107   
     length 3.25176  
     axis 0 0 0   XYZ 
    dof ry rz
    limits (-10.0 20.0)
           (-20.0 0.0)
  end
  begin
     id 25 
     name rhumerus
     direction -1 -4.48965e-011 -1.81384e-027  
     length 5.6595   
     axis 180 30 90   XYZ
    dof rx ry rz
    limits (-90.0 60.0)
           (-90.0 90.0)
           (-90.0 90.0)
  end
  begin
     id 26 
     name rradius
     direction -1 -4.48996e-011 -8.09397e-027   
     length 3.37604   
     axis 180 30 90   XYZ
    dof rx
    limits (-10.0 170.0)
  end
  begin
     id 27 
     name rwrist
     direction -1 -4.48927e-011 -1.56669e-026   
     length 1.68802   
     axis 1.21142e-014 -90 -90   XYZ
    dof ry
    limits (-180.0 0.0)
  end
  begin
     id 28
     name rhand
     direction -1 -4.48912e-011 -3.13339e-026   
     length 0.824702   
     axis 1.99937e-014 -90 -90   XYZ
    dof rx rz
    limits (-90.0 90.0)
           (-45.0 45.0)
  end
  begin
     id 29
     name rfingers
     direction -1 -4.49011e-011 -6.26677e-026   
     length 0.664896   
     axis 3.99874e-014 -90 -90   XYZ
    dof rx
    limits (0.0 90.0)
  end
  begin
     id 30
     name rthumb
     direction -0.707107 -6.34931e-011 0.707107   
     length 0.954662   
     axis -90 -45 -2.85299e-015   XYZ
    dof rx rz
    limits (-45.0 45.0)
           (-45.0 45.0)
  end
:hierarchy
  begin
    root lhipjoint rhipjoint lowerback
    lhipjoint lfemur
    lfemur ltibia
    ltibia lfoot
    lfoot ltoes
    rhipjoint rfemur
    rfemur rtibia
    rtibia rfoot
    rfoot rtoes
    lowerback upperback
    upperback thorax
    thorax lowerneck lclavicle rclavicle
    lowerneck upperneck
    upperneck head
    lclavicle lhumerus
    lhumerus lradius
    lradius lwrist
    lwrist lhand lthumb
    lhand lfingers
    rclavicle rhumerus
    rhumerus rradius
    rradius rwrist
    rwrist rhand rthumb
    rhand rfingers
  end

#!OML:ASF F:\VICON\USERDATA\INSTALL\rory3\rory3.ASF
:FULLY-SPECIFIED
:DEGREES
121
root 2.9791 15.7047 -4.31357 5.22892 -23.6049 -27.1795
lowerback 10.5177 0.880854 9.75098
upperback 1.11218 2.82797 14.2347
thorax -5.06487 1.27123 9.57554
lowerneck -6.80913 -8.23258 -16.7124
upperneck 35.3861 -12.7004 9.36439
head 15.2888 -6.75433 4.81695
rclavicle -1.26477e-014 -6.52014e-014
rhumerus -31.3095 -2.79823 -38.4278
rradius 72.8276
rwrist -8.14667
rhand -22.7312 21.8952
rfingers 7.12502
rthumb 3.70268 -8.05235
lclavicle -1.26477e-014 -6.52014e-014
lhumerus -41.3461 10.8204 -6.67279
lradius 40.5821
lwrist -1.53578
lhand -20.5257 41.7289
lfingers 7.12502
lthumb 5.83224 71.6286
rfemur 22.2807 14.9598 8.98738
rtibia 74.7965
rfoot 19.142 -9.72774
rtoes 23.3399
lfemur -47.5187 12.7306 -1.7073
ltibia 39.7874
lfoot 5.07577 2.3816
ltoes -13.44
122
root 2.96178 15.5415 -3.92182 3.86642 -22.7153 -26.3058
lowerback 10.8572 0.565733 9.62948
upperback 1.12941 2.45324 14.0255
thorax -5.19618 1.08709 9.46
lowerneck -6.43592 -8.34968 -16.9239
upperneck 35.495 -12.8737 9.24484
head 15.3019 -6.88407 4.7849
rclavicle 6.87671e-015 1.11319e-014
rhumerus -33.2729 -4.58099 -37.688
rradius 71.7249
rwrist -7.67214
rhand -22.3975 22.1021
rfingers 7.12502
rthumb 4.02491 -7.83961
lclavicle 6.87671e-015 1.11319e-014
lhumerus -41.3261 12.682 -5.89624
lradius 41.3587
lwrist -1.86125
lhand -20.5552 41.1618
lfingers 7.12502
lthumb 5.80383 71.0623
rfemur 20.8499 15.0397 7.38085
rtibia 77.7893
rfoot 18.3096 -11.5831
rtoes 27.5278
lfemur -49.5776 12.9461 -3.62641
ltibia 44.6633
lfoot 9.37091 -2.33301
ltoes 8.96697
123
root 2.93727 15.3454 -3.56053 2.24183 -21.9359 -25.1886
lowerback 12.3856 0.0497438 8.66535
upperback 0.643968 2.02162 14.079
thorax -6.59524 0.900411 10.2231
lowerneck -5.43321 -8.08903 -17.3448
upperneck 35.9221 -12.4383 8.66458
head 15.1939 -6.87038 4.73136
rclavicle -6.12754e-014 1.59028e-015
rhumerus -34.9801 -5.36644 -36.768
rradius 70.2599
rwrist -6.8305
rhand -22.0342 22.6907
rfingers 7.12502
rthumb 4.3757 -7.24413
lclavicle -6.12754e-014 1.59028e-015
lhumerus -42.716 13.3109 -5.01622
lradius 42.7241
lwrist -1.92151
lhand -20.3062 40.9276
lfingers 7.12502
lthumb 6.04423 70.8214
rfemur 19.2084 15.238 5.37901
rtibia 80.8745
rfoot 17.6339 -12.8292
rtoes 31.9464
lfemur -50.9806 12.4787 -5.41949
ltibia 49.9002
lfoot 8.09195 -4.36201
ltoes 19.2524
124
root 2.90222 15.1357 -3.23307 0.449539 -21.3374 -23.4133
lowerback 12.9914 -0.162424 7.34006
upperback 1.07209 1.57107 13.7326
thorax -6.4354 0.713918 10.6653
lowerneck -5.47412 -8.12301 -17.2427
upperneck 35.8152 -12.4263 8.50982
head 15.1255 -6.86074 4.64429
rclavicle 9.11925e-015 4.77083e-015
rhumerus -36.1654 -7.89131 -36.3053
rradius 68.7726
rwrist -6.13916
rhand -22.0975 23.0624
rfingers 7.12502
rthumb 4.31461 -6.87362
lclavicle 9.11925e-015 4.77083e-015
lhumerus -43.6756 15.6887 -3.94027
lradius 44.1987
lwrist -1.66892
lhand -20.4995 41.8834
lfingers 7.12502
lthumb 5.85754 71.7824
rfemur 16.8272 15.5161 2.42942
rtibia 84.1183
rfoot 16.8444 -13.7122
rtoes 35.8887
lfemur -52.0929 11.7533 -7.6085
ltibia 55.0973
lfoot 5.75019 -5.5701
ltoes 19.6798
125
root 2.86767 14.9319 -2.96675 -1.65928 -20.1082 -21.1108
lowerback 14.3245 -0.443529 5.51584
upperback 1.47087 1.0382 13.1121
thorax -6.69216 0.498894 11.1441
lowerneck -5.37329 -8.20966 -16.9512
upperneck 35.3958 -12.6081 8.60536
head 14.9088 -6.87899 4.59802
rclavicle 2.97897e-014 -1.74931e-014
rhumerus -37.6735 -10.5491 -36.1394
rradius 67.5666
rwrist -5.96793
rhand -22.6791 22.9901
rfingers 7.12502
rthumb 3.75296 -6.95657
lclavicle 2.97897e-014 -1.74931e-014
lhumerus -44.2637 18.6335 -2.80229
lradius 45.4126
lwrist -1.43555
lhand -20.6243 42.9666
lfingers 7.12502
lthumb 5.73712 72.869
rfemur 14.0762 15.12 -1.18694
rtibia 87.3866
rfoot 15.4992 -14.9472
rtoes 39.5744
lfemur -52.9973 10.4949 -10.3211
ltibia 59.6638
lfoot 3.72493 -6.0904
ltoes 18.1821
126
root 2.85535 14.7478 -2.68583 -3.59307 -19.712 -18.9607
lowerback 15.5016 -0.49164 3.9961
upperback 2.00987 0.769347 12.4666
thorax -6.72213 0.3945 11.3631
lowerneck -5.04194 -8.23161 -16.7834
upperneck 34.8406 -12.7009 8.72678
head 14.5768 -6.88027 4.6051
rclavicle -1.44989e-014 3.18055e-014
rhumerus -39.1179 -13.1681 -36.0274
rradius 66.1818
rwrist -5.60313
rhand -23.2273 22.748
rfingers 7.12502
rthumb 3.22358 -7.20742
lclavicle -1.44989e-014 3.18055e-014
lhumerus -44.9579 21.759 -1.51875
lradius 46.4408
lwrist -1.30434
lhand -19.9292 42.0424
lfingers 7.12502
lthumb 6.4082 71.9255
rfemur 10.3939 15.3066 -4.84106
rtibia 90.2551
rfoot 14.0345 -16.7083
rtoes 41.1086
lfemur -53.0915 9.78775 -12.7971
ltibia 63.3553
lfoot 1.99218 -6.01584
ltoes 20.3761
127
root 2.87398 14.5968 -2.38437 -5.38384 -19.837 -17.2094
lowerback 16.9518 -0.486199 3.04686
upperback 2.29284 0.703634 11.9607
thorax -7.2057 0.388061 11.4053
lowerneck -4.14951 -8.124 -16.9676
upperneck 34.4611 -12.6041 8.67135
head 14.1969 -6.89183 4.65535
rclavicle -1.25483e-015 -8.26944e-014
rhumerus -41.1184 -14.2787 -35.8019
rradius 65.2206
rwrist -5.79615
rhand -23.8097 21.9001
rfingers 7.12502
rthumb 2.6611 -8.06305
lclavicle -1.25483e-015 -8.26944e-014
lhumerus -46.1127 23.8635 0.207966
lradius 47.7726
lwrist -0.61567
lhand -18.9762 40.1867
lfingers 7.12502
lthumb 7.32813 70.0398
rfemur 6.25673 15.6767 -7.94575
rtibia 92.356
rfoot 13.0426 -18.7313
rtoes 43.6748
lfemur -52.4348 9.4249 -14.8669
ltibia 66.249
lfoot -0.151308 -5.60933
ltoes 21.1445
128
root 2.92119 14.4836 -2.07917 -6.94168 -20.2722 -15.8174
lowerback 17.9079 -0.362205 2.74696
upperback 2.91578 0.79643 11.4591
thorax -7.05475 0.415683 10.9731
lowerneck -3.25415 -8.22206 -17.3832
upperneck 33.631 -12.8619 9.0132
head 13.7355 -7.03047 4.8396
rclavicle 4.50744e-014 -4.92986e-014
rhumerus -43.0363 -15.5416 -35.8861
rradius 64.359
rwrist -6.67287
rhand -24.678 20.759
rfingers 7.12502
rthumb 1.82252 -9.21301
lclavicle 4.50744e-014 -4.92986e-014
lhumerus -46.9431 26.2344 2.41793
lradius 49.1778
lwrist 0.657459
lhand -18.7335 40.4309
lfingers 7.12502
lthumb 7.56237 70.2757
rfemur 1.73078 15.9495 -10.3597
rtibia 93.5704
rfoot 11.0418 -20.8892
rtoes 44.854
lfemur -51.4646 9.09415 -16.5253
ltibia 68.5895
lfoot -2.35332 -4.50868
ltoes 17.8782
129
root 2.98067 14.3955 -1.77385 -8.42815 -21.0303 -14.2857
lowerback 18.7786 -0.154276 2.36832
upperback 3.54633 0.964809 10.9023
thorax -6.8569 0.480167 10.5021
lowerneck -3.4732 -8.1775 -16.2135
upperneck 33.2148 -12.5637 8.09071
head 13.3626 -6.83229 4.29912
rclavicle -1.86858e-014 -3.49861e-014
rhumerus -44.4176 -17.219 -36.1293
rradius 62.7291
rwrist -7.24363
rhand -25.436 20.021
rfingers 7.12502
rthumb 1.09051 -9.95592
lclavicle -1.86858e-014 -3.49861e-014
lhumerus -47.5658 28.1918 5.04493
lradius 50.3612
lwrist 2.53803
lhand -19.0234 41.6055
lfingers 7.12502
lthumb 7.28253 71.4602
rfemur -3.04042 16.0959 -12.5876
rtibia 93.9714
rfoot 9.15769 -23.1495
rtoes 45.8464
lfemur -50.1895 8.78995 -18.2108
ltibia 70.5134
lfoot -4.25277 -2.89727
ltoes 15.4384
130
root 3.03018 14.3098 -1.46375 -10.2402 -21.5485 -11.9217
lowerback 19.5023 0.0122658 1.22142
upperback 4.15281 0.896237 10.1576
thorax -6.57059 0.441187 10.3329
lowerneck -3.74009 -8.09487 -15.6629
upperneck 33.1161 -12.2411 7.42234
head 13.2254 -6.68177 3.97742
rclavicle -4.29375e-014 -5.08889e-014
rhumerus -45.4424 -18.5345 -36.5383
rradius 60.986
rwrist -7.62676
rhand -25.9582 19.1104
rfingers 7.12502
rthumb 0.586101 -10.8686
lclavicle -4.29375e-014 -5.08889e-014
lhumerus -48.1196 29.9801 7.8842
lradius 51.0367
lwrist 4.15783
lhand -19.0646 41.5077
lfingers 7.12502
lthumb 7.24283 71.3637
rfemur -7.25693 15.8387 -15.4445
rtibia 93.3958
rfoot 7.05599 -24.6746
rtoes 48.7532
lfemur -48.6634 8.44291 -20.8049
ltibia 72.1312
lfoot -6.0713 -1.28493
ltoes 15.0647
131
root 3.06172 14.2251 -1.23735 -10.877 -22.1655 -11.1947
lowerback 20.334 0.130126 1.20658
upperback 4.50433 1.0479 9.90011
thorax -6.64908 0.503668 10.0187
lowerneck -3.53615 -7.9941 -15.5953
upperneck 32.8295 -12.025 7.19655
head 13.0033 -6.60164 3.91492
rclavicle -5.46658e-015 -3.02153e-014
rhumerus -46.4573 -19.5472 -37.1654
rradius 59.5908
rwrist -8.25918
rhand -26.1691 18.2471
rfingers 7.12502
rthumb 0.382456 -11.7323
lclavicle -5.46658e-015 -3.02153e-014
lhumerus -48.0624 31.7113 11.0608
lradius 51.0629
lwrist 5.24524
lhand -18.6744 41.5246
lfingers 7.12502
lthumb 7.61942 71.3674
rfemur -13.0829 14.1753 -16.0431
rtibia 92.8303
rfoot 7.24736 -25.5304
rtoes 48.8315
lfemur -48.4319 8.65895 -21.6469
ltibia 73.5842
lfoot -7.24047 -0.526666
ltoes 15.342
132
root 3.09743 14.1403 -0.981674 -12.0393 -23.1973 -9.85853
lowerback 21.0175 0.418866 0.890192
upperback 5.04876 1.31658 9.47825
thorax -6.45248 0.616232 9.64541
lowerneck -3.17251 -7.88169 -15.7769
upperneck 32.44 -11.8889 7.3231
head 12.7639 -6.55182 4.02647
rclavicle 3.34952e-014 -1.01778e-013
rhumerus -47.3192 -20.3575 -37.915
rradius 58.1932
rwrist -9.25447
rhand -25.5952 18.4605
rfingers 7.12502
rthumb 0.936744 -11.5172
lclavicle 3.34952e-014 -1.01778e-013
lhumerus -47.4409 32.3422 15.0472
lradius 50.8982
lwrist 7.00372
lhand -18.0969 42.1563
lfingers 7.12502
lthumb 8.17685 71.978
rfemur -18.073 13.0454 -16.6349
rtibia 91.1144
rfoot 6.01373 -26.1962
rtoes 45.1409
lfemur -47.473 9.44771 -23.143
ltibia 75.0871
lfoot -8.97217 0.509676
ltoes 14.6385
